<svg xmlns="http://www.w3.org/2000/svg" xmlns:xlink="http://www.w3.org/1999/xlink" width="1357" height="935" viewBox="0 0 1357 935"><defs><style>.a{fill:none;}.b,.d{opacity:0.55;}.b{clip-path:url(#a);}.c{fill:#b8bbbf;}.d{clip-path:url(#b);}.e{fill:url(#c);}.f{fill:url(#d);}</style><clipPath id="a"><rect class="a" width="373" height="517"/></clipPath><clipPath id="b"><rect class="a" width="140" height="171"/></clipPath><linearGradient id="c" x1="0.5" x2="0.5" y2="1" gradientUnits="objectBoundingBox"><stop offset="0" stop-color="#55a8fd"/><stop offset="1" stop-color="#85f2ff"/></linearGradient><linearGradient id="d" y1="1" y2="0" xlink:href="#c"/></defs><g transform="translate(-9 76)"><g class="b" transform="translate(993 8)"><g transform="translate(-1084 -14)"><circle class="c" cx="2" cy="2" r="2" transform="translate(1084 14)"/></g><g transform="translate(-1066 -14)"><circle class="c" cx="2" cy="2" r="2" transform="translate(1084 14)"/></g><g transform="translate(-1048 -14)"><circle class="c" cx="2" cy="2" r="2" transform="translate(1084 14)"/></g><g transform="translate(-1030 -14)"><circle class="c" cx="2" cy="2" r="2" transform="translate(1084 14)"/></g><g transform="translate(-1012 -14)"><circle class="c" cx="2" cy="2" r="2" transform="translate(1084 14)"/></g><g transform="translate(-994 -14)"><circle class="c" cx="2" cy="2" r="2" transform="translate(1084 14)"/></g><g transform="translate(-976 -14)"><circle class="c" cx="2" cy="2" r="2" transform="translate(1084 14)"/></g><g transform="translate(-958 -14)"><circle class="c" cx="2" cy="2" r="2" transform="translate(1084 14)"/></g><g transform="translate(-940 -14)"><circle class="c" cx="2" cy="2" r="2" transform="translate(1084 14)"/></g><g transform="translate(-922 -14)"><circle class="c" cx="2" cy="2" r="2" transform="translate(1084 14)"/></g><g transform="translate(-904 -14)"><circle class="c" cx="2" cy="2" r="2" transform="translate(1084 14)"/></g><g transform="translate(-886 -14)"><circle class="c" cx="2" cy="2" r="2" transform="translate(1084 14)"/></g><g transform="translate(-868 -14)"><circle class="c" cx="2" cy="2" r="2" transform="translate(1084 14)"/></g><g transform="translate(-850 -14)"><circle class="c" cx="2" cy="2" r="2" transform="translate(1084 14)"/></g><g transform="translate(-832 -14)"><circle class="c" cx="2" cy="2" r="2" transform="translate(1084 14)"/></g><g transform="translate(-814 -14)"><circle class="c" cx="2" cy="2" r="2" transform="translate(1084 14)"/></g><g transform="translate(-796 -14)"><circle class="c" cx="2" cy="2" r="2" transform="translate(1084 14)"/></g><g transform="translate(-778 -14)"><circle class="c" cx="2" cy="2" r="2" transform="translate(1084 14)"/></g><g transform="translate(-760 -14)"><circle class="c" cx="2" cy="2" r="2" transform="translate(1084 14)"/></g><g transform="translate(-742 -14)"><circle class="c" cx="2" cy="2" r="2" transform="translate(1084 14)"/></g><g transform="translate(-724 -14)"><circle class="c" cx="2" cy="2" r="2" transform="translate(1084 14)"/></g><g transform="translate(-1084 4)"><circle class="c" cx="2" cy="2" r="2" transform="translate(1084 14)"/></g><g transform="translate(-1066 4)"><circle class="c" cx="2" cy="2" r="2" transform="translate(1084 14)"/></g><g transform="translate(-1048 4)"><circle class="c" cx="2" cy="2" r="2" transform="translate(1084 14)"/></g><g transform="translate(-1030 4)"><circle class="c" cx="2" cy="2" r="2" transform="translate(1084 14)"/></g><g transform="translate(-1012 4)"><circle class="c" cx="2" cy="2" r="2" transform="translate(1084 14)"/></g><g transform="translate(-994 4)"><circle class="c" cx="2" cy="2" r="2" transform="translate(1084 14)"/></g><g transform="translate(-976 4)"><circle class="c" cx="2" cy="2" r="2" transform="translate(1084 14)"/></g><g transform="translate(-958 4)"><circle class="c" cx="2" cy="2" r="2" transform="translate(1084 14)"/></g><g transform="translate(-940 4)"><circle class="c" cx="2" cy="2" r="2" transform="translate(1084 14)"/></g><g transform="translate(-922 4)"><circle class="c" cx="2" cy="2" r="2" transform="translate(1084 14)"/></g><g transform="translate(-904 4)"><circle class="c" cx="2" cy="2" r="2" transform="translate(1084 14)"/></g><g transform="translate(-886 4)"><circle class="c" cx="2" cy="2" r="2" transform="translate(1084 14)"/></g><g transform="translate(-868 4)"><circle class="c" cx="2" cy="2" r="2" transform="translate(1084 14)"/></g><g transform="translate(-850 4)"><circle class="c" cx="2" cy="2" r="2" transform="translate(1084 14)"/></g><g transform="translate(-832 4)"><circle class="c" cx="2" cy="2" r="2" transform="translate(1084 14)"/></g><g transform="translate(-814 4)"><circle class="c" cx="2" cy="2" r="2" transform="translate(1084 14)"/></g><g transform="translate(-796 4)"><circle class="c" cx="2" cy="2" r="2" transform="translate(1084 14)"/></g><g transform="translate(-778 4)"><circle class="c" cx="2" cy="2" r="2" transform="translate(1084 14)"/></g><g transform="translate(-760 4)"><circle class="c" cx="2" cy="2" r="2" transform="translate(1084 14)"/></g><g transform="translate(-742 4)"><circle class="c" cx="2" cy="2" r="2" transform="translate(1084 14)"/></g><g transform="translate(-724 4)"><circle class="c" cx="2" cy="2" r="2" transform="translate(1084 14)"/></g><g transform="translate(-1084 22)"><circle class="c" cx="2" cy="2" r="2" transform="translate(1084 14)"/></g><g transform="translate(-1066 22)"><circle class="c" cx="2" cy="2" r="2" transform="translate(1084 14)"/></g><g transform="translate(-1048 22)"><circle class="c" cx="2" cy="2" r="2" transform="translate(1084 14)"/></g><g transform="translate(-1030 22)"><circle class="c" cx="2" cy="2" r="2" transform="translate(1084 14)"/></g><g transform="translate(-1012 22)"><circle class="c" cx="2" cy="2" r="2" transform="translate(1084 14)"/></g><g transform="translate(-994 22)"><circle class="c" cx="2" cy="2" r="2" transform="translate(1084 14)"/></g><g transform="translate(-976 22)"><circle class="c" cx="2" cy="2" r="2" transform="translate(1084 14)"/></g><g transform="translate(-958 22)"><circle class="c" cx="2" cy="2" r="2" transform="translate(1084 14)"/></g><g transform="translate(-940 22)"><circle class="c" cx="2" cy="2" r="2" transform="translate(1084 14)"/></g><g transform="translate(-922 22)"><circle class="c" cx="2" cy="2" r="2" transform="translate(1084 14)"/></g><g transform="translate(-904 22)"><circle class="c" cx="2" cy="2" r="2" transform="translate(1084 14)"/></g><g transform="translate(-886 22)"><circle class="c" cx="2" cy="2" r="2" transform="translate(1084 14)"/></g><g transform="translate(-868 22)"><circle class="c" cx="2" cy="2" r="2" transform="translate(1084 14)"/></g><g transform="translate(-850 22)"><circle class="c" cx="2" cy="2" r="2" transform="translate(1084 14)"/></g><g transform="translate(-832 22)"><circle class="c" cx="2" cy="2" r="2" transform="translate(1084 14)"/></g><g transform="translate(-814 22)"><circle class="c" cx="2" cy="2" r="2" transform="translate(1084 14)"/></g><g transform="translate(-796 22)"><circle class="c" cx="2" cy="2" r="2" transform="translate(1084 14)"/></g><g transform="translate(-778 22)"><circle class="c" cx="2" cy="2" r="2" transform="translate(1084 14)"/></g><g transform="translate(-760 22)"><circle class="c" cx="2" cy="2" r="2" transform="translate(1084 14)"/></g><g transform="translate(-742 22)"><circle class="c" cx="2" cy="2" r="2" transform="translate(1084 14)"/></g><g transform="translate(-724 22)"><circle class="c" cx="2" cy="2" r="2" transform="translate(1084 14)"/></g><g transform="translate(-1084 40)"><circle class="c" cx="2" cy="2" r="2" transform="translate(1084 14)"/></g><g transform="translate(-1066 40)"><circle class="c" cx="2" cy="2" r="2" transform="translate(1084 14)"/></g><g transform="translate(-1048 40)"><circle class="c" cx="2" cy="2" r="2" transform="translate(1084 14)"/></g><g transform="translate(-1030 40)"><circle class="c" cx="2" cy="2" r="2" transform="translate(1084 14)"/></g><g transform="translate(-1012 40)"><circle class="c" cx="2" cy="2" r="2" transform="translate(1084 14)"/></g><g transform="translate(-994 40)"><circle class="c" cx="2" cy="2" r="2" transform="translate(1084 14)"/></g><g transform="translate(-976 40)"><circle class="c" cx="2" cy="2" r="2" transform="translate(1084 14)"/></g><g transform="translate(-958 40)"><circle class="c" cx="2" cy="2" r="2" transform="translate(1084 14)"/></g><g transform="translate(-940 40)"><circle class="c" cx="2" cy="2" r="2" transform="translate(1084 14)"/></g><g transform="translate(-922 40)"><circle class="c" cx="2" cy="2" r="2" transform="translate(1084 14)"/></g><g transform="translate(-904 40)"><circle class="c" cx="2" cy="2" r="2" transform="translate(1084 14)"/></g><g transform="translate(-886 40)"><circle class="c" cx="2" cy="2" r="2" transform="translate(1084 14)"/></g><g transform="translate(-868 40)"><circle class="c" cx="2" cy="2" r="2" transform="translate(1084 14)"/></g><g transform="translate(-850 40)"><circle class="c" cx="2" cy="2" r="2" transform="translate(1084 14)"/></g><g transform="translate(-832 40)"><circle class="c" cx="2" cy="2" r="2" transform="translate(1084 14)"/></g><g transform="translate(-814 40)"><circle class="c" cx="2" cy="2" r="2" transform="translate(1084 14)"/></g><g transform="translate(-796 40)"><circle class="c" cx="2" cy="2" r="2" transform="translate(1084 14)"/></g><g transform="translate(-778 40)"><circle class="c" cx="2" cy="2" r="2" transform="translate(1084 14)"/></g><g transform="translate(-760 40)"><circle class="c" cx="2" cy="2" r="2" transform="translate(1084 14)"/></g><g transform="translate(-742 40)"><circle class="c" cx="2" cy="2" r="2" transform="translate(1084 14)"/></g><g transform="translate(-724 40)"><circle class="c" cx="2" cy="2" r="2" transform="translate(1084 14)"/></g><g transform="translate(-1084 58)"><circle class="c" cx="2" cy="2" r="2" transform="translate(1084 14)"/></g><g transform="translate(-1066 58)"><circle class="c" cx="2" cy="2" r="2" transform="translate(1084 14)"/></g><g transform="translate(-1048 58)"><circle class="c" cx="2" cy="2" r="2" transform="translate(1084 14)"/></g><g transform="translate(-1030 58)"><circle class="c" cx="2" cy="2" r="2" transform="translate(1084 14)"/></g><g transform="translate(-1012 58)"><circle class="c" cx="2" cy="2" r="2" transform="translate(1084 14)"/></g><g transform="translate(-994 58)"><circle class="c" cx="2" cy="2" r="2" transform="translate(1084 14)"/></g><g transform="translate(-976 58)"><circle class="c" cx="2" cy="2" r="2" transform="translate(1084 14)"/></g><g transform="translate(-958 58)"><circle class="c" cx="2" cy="2" r="2" transform="translate(1084 14)"/></g><g transform="translate(-940 58)"><circle class="c" cx="2" cy="2" r="2" transform="translate(1084 14)"/></g><g transform="translate(-922 58)"><circle class="c" cx="2" cy="2" r="2" transform="translate(1084 14)"/></g><g transform="translate(-904 58)"><circle class="c" cx="2" cy="2" r="2" transform="translate(1084 14)"/></g><g transform="translate(-886 58)"><circle class="c" cx="2" cy="2" r="2" transform="translate(1084 14)"/></g><g transform="translate(-868 58)"><circle class="c" cx="2" cy="2" r="2" transform="translate(1084 14)"/></g><g transform="translate(-850 58)"><circle class="c" cx="2" cy="2" r="2" transform="translate(1084 14)"/></g><g transform="translate(-832 58)"><circle class="c" cx="2" cy="2" r="2" transform="translate(1084 14)"/></g><g transform="translate(-814 58)"><circle class="c" cx="2" cy="2" r="2" transform="translate(1084 14)"/></g><g transform="translate(-796 58)"><circle class="c" cx="2" cy="2" r="2" transform="translate(1084 14)"/></g><g transform="translate(-778 58)"><circle class="c" cx="2" cy="2" r="2" transform="translate(1084 14)"/></g><g transform="translate(-760 58)"><circle class="c" cx="2" cy="2" r="2" transform="translate(1084 14)"/></g><g transform="translate(-742 58)"><circle class="c" cx="2" cy="2" r="2" transform="translate(1084 14)"/></g><g transform="translate(-724 58)"><circle class="c" cx="2" cy="2" r="2" transform="translate(1084 14)"/></g><g transform="translate(-1084 76)"><circle class="c" cx="2" cy="2" r="2" transform="translate(1084 14)"/></g><g transform="translate(-1066 76)"><circle class="c" cx="2" cy="2" r="2" transform="translate(1084 14)"/></g><g transform="translate(-1048 76)"><circle class="c" cx="2" cy="2" r="2" transform="translate(1084 14)"/></g><g transform="translate(-1030 76)"><circle class="c" cx="2" cy="2" r="2" transform="translate(1084 14)"/></g><g transform="translate(-1012 76)"><circle class="c" cx="2" cy="2" r="2" transform="translate(1084 14)"/></g><g transform="translate(-994 76)"><circle class="c" cx="2" cy="2" r="2" transform="translate(1084 14)"/></g><g transform="translate(-976 76)"><circle class="c" cx="2" cy="2" r="2" transform="translate(1084 14)"/></g><g transform="translate(-958 76)"><circle class="c" cx="2" cy="2" r="2" transform="translate(1084 14)"/></g><g transform="translate(-940 76)"><circle class="c" cx="2" cy="2" r="2" transform="translate(1084 14)"/></g><g transform="translate(-922 76)"><circle class="c" cx="2" cy="2" r="2" transform="translate(1084 14)"/></g><g transform="translate(-904 76)"><circle class="c" cx="2" cy="2" r="2" transform="translate(1084 14)"/></g><g transform="translate(-886 76)"><circle class="c" cx="2" cy="2" r="2" transform="translate(1084 14)"/></g><g transform="translate(-868 76)"><circle class="c" cx="2" cy="2" r="2" transform="translate(1084 14)"/></g><g transform="translate(-850 76)"><circle class="c" cx="2" cy="2" r="2" transform="translate(1084 14)"/></g><g transform="translate(-832 76)"><circle class="c" cx="2" cy="2" r="2" transform="translate(1084 14)"/></g><g transform="translate(-814 76)"><circle class="c" cx="2" cy="2" r="2" transform="translate(1084 14)"/></g><g transform="translate(-796 76)"><circle class="c" cx="2" cy="2" r="2" transform="translate(1084 14)"/></g><g transform="translate(-778 76)"><circle class="c" cx="2" cy="2" r="2" transform="translate(1084 14)"/></g><g transform="translate(-760 76)"><circle class="c" cx="2" cy="2" r="2" transform="translate(1084 14)"/></g><g transform="translate(-742 76)"><circle class="c" cx="2" cy="2" r="2" transform="translate(1084 14)"/></g><g transform="translate(-724 76)"><circle class="c" cx="2" cy="2" r="2" transform="translate(1084 14)"/></g><g transform="translate(-1084 94)"><circle class="c" cx="2" cy="2" r="2" transform="translate(1084 14)"/></g><g transform="translate(-1066 94)"><circle class="c" cx="2" cy="2" r="2" transform="translate(1084 14)"/></g><g transform="translate(-1048 94)"><circle class="c" cx="2" cy="2" r="2" transform="translate(1084 14)"/></g><g transform="translate(-1030 94)"><circle class="c" cx="2" cy="2" r="2" transform="translate(1084 14)"/></g><g transform="translate(-1012 94)"><circle class="c" cx="2" cy="2" r="2" transform="translate(1084 14)"/></g><g transform="translate(-994 94)"><circle class="c" cx="2" cy="2" r="2" transform="translate(1084 14)"/></g><g transform="translate(-976 94)"><circle class="c" cx="2" cy="2" r="2" transform="translate(1084 14)"/></g><g transform="translate(-958 94)"><circle class="c" cx="2" cy="2" r="2" transform="translate(1084 14)"/></g><g transform="translate(-940 94)"><circle class="c" cx="2" cy="2" r="2" transform="translate(1084 14)"/></g><g transform="translate(-922 94)"><circle class="c" cx="2" cy="2" r="2" transform="translate(1084 14)"/></g><g transform="translate(-904 94)"><circle class="c" cx="2" cy="2" r="2" transform="translate(1084 14)"/></g><g transform="translate(-886 94)"><circle class="c" cx="2" cy="2" r="2" transform="translate(1084 14)"/></g><g transform="translate(-868 94)"><circle class="c" cx="2" cy="2" r="2" transform="translate(1084 14)"/></g><g transform="translate(-850 94)"><circle class="c" cx="2" cy="2" r="2" transform="translate(1084 14)"/></g><g transform="translate(-832 94)"><circle class="c" cx="2" cy="2" r="2" transform="translate(1084 14)"/></g><g transform="translate(-814 94)"><circle class="c" cx="2" cy="2" r="2" transform="translate(1084 14)"/></g><g transform="translate(-796 94)"><circle class="c" cx="2" cy="2" r="2" transform="translate(1084 14)"/></g><g transform="translate(-778 94)"><circle class="c" cx="2" cy="2" r="2" transform="translate(1084 14)"/></g><g transform="translate(-760 94)"><circle class="c" cx="2" cy="2" r="2" transform="translate(1084 14)"/></g><g transform="translate(-742 94)"><circle class="c" cx="2" cy="2" r="2" transform="translate(1084 14)"/></g><g transform="translate(-724 94)"><circle class="c" cx="2" cy="2" r="2" transform="translate(1084 14)"/></g><g transform="translate(-1084 112)"><circle class="c" cx="2" cy="2" r="2" transform="translate(1084 14)"/></g><g transform="translate(-1066 112)"><circle class="c" cx="2" cy="2" r="2" transform="translate(1084 14)"/></g><g transform="translate(-1048 112)"><circle class="c" cx="2" cy="2" r="2" transform="translate(1084 14)"/></g><g transform="translate(-1030 112)"><circle class="c" cx="2" cy="2" r="2" transform="translate(1084 14)"/></g><g transform="translate(-1012 112)"><circle class="c" cx="2" cy="2" r="2" transform="translate(1084 14)"/></g><g transform="translate(-994 112)"><circle class="c" cx="2" cy="2" r="2" transform="translate(1084 14)"/></g><g transform="translate(-976 112)"><circle class="c" cx="2" cy="2" r="2" transform="translate(1084 14)"/></g><g transform="translate(-958 112)"><circle class="c" cx="2" cy="2" r="2" transform="translate(1084 14)"/></g><g transform="translate(-940 112)"><circle class="c" cx="2" cy="2" r="2" transform="translate(1084 14)"/></g><g transform="translate(-922 112)"><circle class="c" cx="2" cy="2" r="2" transform="translate(1084 14)"/></g><g transform="translate(-904 112)"><circle class="c" cx="2" cy="2" r="2" transform="translate(1084 14)"/></g><g transform="translate(-886 112)"><circle class="c" cx="2" cy="2" r="2" transform="translate(1084 14)"/></g><g transform="translate(-868 112)"><circle class="c" cx="2" cy="2" r="2" transform="translate(1084 14)"/></g><g transform="translate(-850 112)"><circle class="c" cx="2" cy="2" r="2" transform="translate(1084 14)"/></g><g transform="translate(-832 112)"><circle class="c" cx="2" cy="2" r="2" transform="translate(1084 14)"/></g><g transform="translate(-814 112)"><circle class="c" cx="2" cy="2" r="2" transform="translate(1084 14)"/></g><g transform="translate(-796 112)"><circle class="c" cx="2" cy="2" r="2" transform="translate(1084 14)"/></g><g transform="translate(-778 112)"><circle class="c" cx="2" cy="2" r="2" transform="translate(1084 14)"/></g><g transform="translate(-760 112)"><circle class="c" cx="2" cy="2" r="2" transform="translate(1084 14)"/></g><g transform="translate(-742 112)"><circle class="c" cx="2" cy="2" r="2" transform="translate(1084 14)"/></g><g transform="translate(-724 112)"><circle class="c" cx="2" cy="2" r="2" transform="translate(1084 14)"/></g><g transform="translate(-1084 130)"><circle class="c" cx="2" cy="2" r="2" transform="translate(1084 14)"/></g><g transform="translate(-1066 130)"><circle class="c" cx="2" cy="2" r="2" transform="translate(1084 14)"/></g><g transform="translate(-1048 130)"><circle class="c" cx="2" cy="2" r="2" transform="translate(1084 14)"/></g><g transform="translate(-1030 130)"><circle class="c" cx="2" cy="2" r="2" transform="translate(1084 14)"/></g><g transform="translate(-1012 130)"><circle class="c" cx="2" cy="2" r="2" transform="translate(1084 14)"/></g><g transform="translate(-994 130)"><circle class="c" cx="2" cy="2" r="2" transform="translate(1084 14)"/></g><g transform="translate(-976 130)"><circle class="c" cx="2" cy="2" r="2" transform="translate(1084 14)"/></g><g transform="translate(-958 130)"><circle class="c" cx="2" cy="2" r="2" transform="translate(1084 14)"/></g><g transform="translate(-940 130)"><circle class="c" cx="2" cy="2" r="2" transform="translate(1084 14)"/></g><g transform="translate(-922 130)"><circle class="c" cx="2" cy="2" r="2" transform="translate(1084 14)"/></g><g transform="translate(-904 130)"><circle class="c" cx="2" cy="2" r="2" transform="translate(1084 14)"/></g><g transform="translate(-886 130)"><circle class="c" cx="2" cy="2" r="2" transform="translate(1084 14)"/></g><g transform="translate(-868 130)"><circle class="c" cx="2" cy="2" r="2" transform="translate(1084 14)"/></g><g transform="translate(-850 130)"><circle class="c" cx="2" cy="2" r="2" transform="translate(1084 14)"/></g><g transform="translate(-832 130)"><circle class="c" cx="2" cy="2" r="2" transform="translate(1084 14)"/></g><g transform="translate(-814 130)"><circle class="c" cx="2" cy="2" r="2" transform="translate(1084 14)"/></g><g transform="translate(-796 130)"><circle class="c" cx="2" cy="2" r="2" transform="translate(1084 14)"/></g><g transform="translate(-778 130)"><circle class="c" cx="2" cy="2" r="2" transform="translate(1084 14)"/></g><g transform="translate(-760 130)"><circle class="c" cx="2" cy="2" r="2" transform="translate(1084 14)"/></g><g transform="translate(-742 130)"><circle class="c" cx="2" cy="2" r="2" transform="translate(1084 14)"/></g><g transform="translate(-724 130)"><circle class="c" cx="2" cy="2" r="2" transform="translate(1084 14)"/></g><g transform="translate(-1084 148)"><circle class="c" cx="2" cy="2" r="2" transform="translate(1084 14)"/></g><g transform="translate(-1066 148)"><circle class="c" cx="2" cy="2" r="2" transform="translate(1084 14)"/></g><g transform="translate(-1048 148)"><circle class="c" cx="2" cy="2" r="2" transform="translate(1084 14)"/></g><g transform="translate(-1030 148)"><circle class="c" cx="2" cy="2" r="2" transform="translate(1084 14)"/></g><g transform="translate(-1012 148)"><circle class="c" cx="2" cy="2" r="2" transform="translate(1084 14)"/></g><g transform="translate(-994 148)"><circle class="c" cx="2" cy="2" r="2" transform="translate(1084 14)"/></g><g transform="translate(-976 148)"><circle class="c" cx="2" cy="2" r="2" transform="translate(1084 14)"/></g><g transform="translate(-958 148)"><circle class="c" cx="2" cy="2" r="2" transform="translate(1084 14)"/></g><g transform="translate(-940 148)"><circle class="c" cx="2" cy="2" r="2" transform="translate(1084 14)"/></g><g transform="translate(-922 148)"><circle class="c" cx="2" cy="2" r="2" transform="translate(1084 14)"/></g><g transform="translate(-904 148)"><circle class="c" cx="2" cy="2" r="2" transform="translate(1084 14)"/></g><g transform="translate(-886 148)"><circle class="c" cx="2" cy="2" r="2" transform="translate(1084 14)"/></g><g transform="translate(-868 148)"><circle class="c" cx="2" cy="2" r="2" transform="translate(1084 14)"/></g><g transform="translate(-850 148)"><circle class="c" cx="2" cy="2" r="2" transform="translate(1084 14)"/></g><g transform="translate(-832 148)"><circle class="c" cx="2" cy="2" r="2" transform="translate(1084 14)"/></g><g transform="translate(-814 148)"><circle class="c" cx="2" cy="2" r="2" transform="translate(1084 14)"/></g><g transform="translate(-796 148)"><circle class="c" cx="2" cy="2" r="2" transform="translate(1084 14)"/></g><g transform="translate(-778 148)"><circle class="c" cx="2" cy="2" r="2" transform="translate(1084 14)"/></g><g transform="translate(-760 148)"><circle class="c" cx="2" cy="2" r="2" transform="translate(1084 14)"/></g><g transform="translate(-742 148)"><circle class="c" cx="2" cy="2" r="2" transform="translate(1084 14)"/></g><g transform="translate(-724 148)"><circle class="c" cx="2" cy="2" r="2" transform="translate(1084 14)"/></g><g transform="translate(-1084 166)"><circle class="c" cx="2" cy="2" r="2" transform="translate(1084 14)"/></g><g transform="translate(-1066 166)"><circle class="c" cx="2" cy="2" r="2" transform="translate(1084 14)"/></g><g transform="translate(-1048 166)"><circle class="c" cx="2" cy="2" r="2" transform="translate(1084 14)"/></g><g transform="translate(-1030 166)"><circle class="c" cx="2" cy="2" r="2" transform="translate(1084 14)"/></g><g transform="translate(-1012 166)"><circle class="c" cx="2" cy="2" r="2" transform="translate(1084 14)"/></g><g transform="translate(-994 166)"><circle class="c" cx="2" cy="2" r="2" transform="translate(1084 14)"/></g><g transform="translate(-976 166)"><circle class="c" cx="2" cy="2" r="2" transform="translate(1084 14)"/></g><g transform="translate(-958 166)"><circle class="c" cx="2" cy="2" r="2" transform="translate(1084 14)"/></g><g transform="translate(-940 166)"><circle class="c" cx="2" cy="2" r="2" transform="translate(1084 14)"/></g><g transform="translate(-922 166)"><circle class="c" cx="2" cy="2" r="2" transform="translate(1084 14)"/></g><g transform="translate(-904 166)"><circle class="c" cx="2" cy="2" r="2" transform="translate(1084 14)"/></g><g transform="translate(-886 166)"><circle class="c" cx="2" cy="2" r="2" transform="translate(1084 14)"/></g><g transform="translate(-868 166)"><circle class="c" cx="2" cy="2" r="2" transform="translate(1084 14)"/></g><g transform="translate(-850 166)"><circle class="c" cx="2" cy="2" r="2" transform="translate(1084 14)"/></g><g transform="translate(-832 166)"><circle class="c" cx="2" cy="2" r="2" transform="translate(1084 14)"/></g><g transform="translate(-814 166)"><circle class="c" cx="2" cy="2" r="2" transform="translate(1084 14)"/></g><g transform="translate(-796 166)"><circle class="c" cx="2" cy="2" r="2" transform="translate(1084 14)"/></g><g transform="translate(-778 166)"><circle class="c" cx="2" cy="2" r="2" transform="translate(1084 14)"/></g><g transform="translate(-760 166)"><circle class="c" cx="2" cy="2" r="2" transform="translate(1084 14)"/></g><g transform="translate(-742 166)"><circle class="c" cx="2" cy="2" r="2" transform="translate(1084 14)"/></g><g transform="translate(-724 166)"><circle class="c" cx="2" cy="2" r="2" transform="translate(1084 14)"/></g><g transform="translate(-1084 184)"><circle class="c" cx="2" cy="2" r="2" transform="translate(1084 14)"/></g><g transform="translate(-1066 184)"><circle class="c" cx="2" cy="2" r="2" transform="translate(1084 14)"/></g><g transform="translate(-1048 184)"><circle class="c" cx="2" cy="2" r="2" transform="translate(1084 14)"/></g><g transform="translate(-1030 184)"><circle class="c" cx="2" cy="2" r="2" transform="translate(1084 14)"/></g><g transform="translate(-1012 184)"><circle class="c" cx="2" cy="2" r="2" transform="translate(1084 14)"/></g><g transform="translate(-994 184)"><circle class="c" cx="2" cy="2" r="2" transform="translate(1084 14)"/></g><g transform="translate(-976 184)"><circle class="c" cx="2" cy="2" r="2" transform="translate(1084 14)"/></g><g transform="translate(-958 184)"><circle class="c" cx="2" cy="2" r="2" transform="translate(1084 14)"/></g><g transform="translate(-940 184)"><circle class="c" cx="2" cy="2" r="2" transform="translate(1084 14)"/></g><g transform="translate(-922 184)"><circle class="c" cx="2" cy="2" r="2" transform="translate(1084 14)"/></g><g transform="translate(-904 184)"><circle class="c" cx="2" cy="2" r="2" transform="translate(1084 14)"/></g><g transform="translate(-886 184)"><circle class="c" cx="2" cy="2" r="2" transform="translate(1084 14)"/></g><g transform="translate(-868 184)"><circle class="c" cx="2" cy="2" r="2" transform="translate(1084 14)"/></g><g transform="translate(-850 184)"><circle class="c" cx="2" cy="2" r="2" transform="translate(1084 14)"/></g><g transform="translate(-832 184)"><circle class="c" cx="2" cy="2" r="2" transform="translate(1084 14)"/></g><g transform="translate(-814 184)"><circle class="c" cx="2" cy="2" r="2" transform="translate(1084 14)"/></g><g transform="translate(-796 184)"><circle class="c" cx="2" cy="2" r="2" transform="translate(1084 14)"/></g><g transform="translate(-778 184)"><circle class="c" cx="2" cy="2" r="2" transform="translate(1084 14)"/></g><g transform="translate(-760 184)"><circle class="c" cx="2" cy="2" r="2" transform="translate(1084 14)"/></g><g transform="translate(-742 184)"><circle class="c" cx="2" cy="2" r="2" transform="translate(1084 14)"/></g><g transform="translate(-724 184)"><circle class="c" cx="2" cy="2" r="2" transform="translate(1084 14)"/></g><g transform="translate(-1084 202)"><circle class="c" cx="2" cy="2" r="2" transform="translate(1084 14)"/></g><g transform="translate(-1066 202)"><circle class="c" cx="2" cy="2" r="2" transform="translate(1084 14)"/></g><g transform="translate(-1048 202)"><circle class="c" cx="2" cy="2" r="2" transform="translate(1084 14)"/></g><g transform="translate(-1030 202)"><circle class="c" cx="2" cy="2" r="2" transform="translate(1084 14)"/></g><g transform="translate(-1012 202)"><circle class="c" cx="2" cy="2" r="2" transform="translate(1084 14)"/></g><g transform="translate(-994 202)"><circle class="c" cx="2" cy="2" r="2" transform="translate(1084 14)"/></g><g transform="translate(-976 202)"><circle class="c" cx="2" cy="2" r="2" transform="translate(1084 14)"/></g><g transform="translate(-958 202)"><circle class="c" cx="2" cy="2" r="2" transform="translate(1084 14)"/></g><g transform="translate(-940 202)"><circle class="c" cx="2" cy="2" r="2" transform="translate(1084 14)"/></g><g transform="translate(-922 202)"><circle class="c" cx="2" cy="2" r="2" transform="translate(1084 14)"/></g><g transform="translate(-904 202)"><circle class="c" cx="2" cy="2" r="2" transform="translate(1084 14)"/></g><g transform="translate(-886 202)"><circle class="c" cx="2" cy="2" r="2" transform="translate(1084 14)"/></g><g transform="translate(-868 202)"><circle class="c" cx="2" cy="2" r="2" transform="translate(1084 14)"/></g><g transform="translate(-850 202)"><circle class="c" cx="2" cy="2" r="2" transform="translate(1084 14)"/></g><g transform="translate(-832 202)"><circle class="c" cx="2" cy="2" r="2" transform="translate(1084 14)"/></g><g transform="translate(-814 202)"><circle class="c" cx="2" cy="2" r="2" transform="translate(1084 14)"/></g><g transform="translate(-796 202)"><circle class="c" cx="2" cy="2" r="2" transform="translate(1084 14)"/></g><g transform="translate(-778 202)"><circle class="c" cx="2" cy="2" r="2" transform="translate(1084 14)"/></g><g transform="translate(-760 202)"><circle class="c" cx="2" cy="2" r="2" transform="translate(1084 14)"/></g><g transform="translate(-742 202)"><circle class="c" cx="2" cy="2" r="2" transform="translate(1084 14)"/></g><g transform="translate(-724 202)"><circle class="c" cx="2" cy="2" r="2" transform="translate(1084 14)"/></g><g transform="translate(-1084 220)"><circle class="c" cx="2" cy="2" r="2" transform="translate(1084 14)"/></g><g transform="translate(-1066 220)"><circle class="c" cx="2" cy="2" r="2" transform="translate(1084 14)"/></g><g transform="translate(-1048 220)"><circle class="c" cx="2" cy="2" r="2" transform="translate(1084 14)"/></g><g transform="translate(-1030 220)"><circle class="c" cx="2" cy="2" r="2" transform="translate(1084 14)"/></g><g transform="translate(-1012 220)"><circle class="c" cx="2" cy="2" r="2" transform="translate(1084 14)"/></g><g transform="translate(-994 220)"><circle class="c" cx="2" cy="2" r="2" transform="translate(1084 14)"/></g><g transform="translate(-976 220)"><circle class="c" cx="2" cy="2" r="2" transform="translate(1084 14)"/></g><g transform="translate(-958 220)"><circle class="c" cx="2" cy="2" r="2" transform="translate(1084 14)"/></g><g transform="translate(-940 220)"><circle class="c" cx="2" cy="2" r="2" transform="translate(1084 14)"/></g><g transform="translate(-922 220)"><circle class="c" cx="2" cy="2" r="2" transform="translate(1084 14)"/></g><g transform="translate(-904 220)"><circle class="c" cx="2" cy="2" r="2" transform="translate(1084 14)"/></g><g transform="translate(-886 220)"><circle class="c" cx="2" cy="2" r="2" transform="translate(1084 14)"/></g><g transform="translate(-868 220)"><circle class="c" cx="2" cy="2" r="2" transform="translate(1084 14)"/></g><g transform="translate(-850 220)"><circle class="c" cx="2" cy="2" r="2" transform="translate(1084 14)"/></g><g transform="translate(-832 220)"><circle class="c" cx="2" cy="2" r="2" transform="translate(1084 14)"/></g><g transform="translate(-814 220)"><circle class="c" cx="2" cy="2" r="2" transform="translate(1084 14)"/></g><g transform="translate(-796 220)"><circle class="c" cx="2" cy="2" r="2" transform="translate(1084 14)"/></g><g transform="translate(-778 220)"><circle class="c" cx="2" cy="2" r="2" transform="translate(1084 14)"/></g><g transform="translate(-760 220)"><circle class="c" cx="2" cy="2" r="2" transform="translate(1084 14)"/></g><g transform="translate(-742 220)"><circle class="c" cx="2" cy="2" r="2" transform="translate(1084 14)"/></g><g transform="translate(-724 220)"><circle class="c" cx="2" cy="2" r="2" transform="translate(1084 14)"/></g><g transform="translate(-1084 238)"><circle class="c" cx="2" cy="2" r="2" transform="translate(1084 14)"/></g><g transform="translate(-1066 238)"><circle class="c" cx="2" cy="2" r="2" transform="translate(1084 14)"/></g><g transform="translate(-1048 238)"><circle class="c" cx="2" cy="2" r="2" transform="translate(1084 14)"/></g><g transform="translate(-1030 238)"><circle class="c" cx="2" cy="2" r="2" transform="translate(1084 14)"/></g><g transform="translate(-1012 238)"><circle class="c" cx="2" cy="2" r="2" transform="translate(1084 14)"/></g><g transform="translate(-994 238)"><circle class="c" cx="2" cy="2" r="2" transform="translate(1084 14)"/></g><g transform="translate(-976 238)"><circle class="c" cx="2" cy="2" r="2" transform="translate(1084 14)"/></g><g transform="translate(-958 238)"><circle class="c" cx="2" cy="2" r="2" transform="translate(1084 14)"/></g><g transform="translate(-940 238)"><circle class="c" cx="2" cy="2" r="2" transform="translate(1084 14)"/></g><g transform="translate(-922 238)"><circle class="c" cx="2" cy="2" r="2" transform="translate(1084 14)"/></g><g transform="translate(-904 238)"><circle class="c" cx="2" cy="2" r="2" transform="translate(1084 14)"/></g><g transform="translate(-886 238)"><circle class="c" cx="2" cy="2" r="2" transform="translate(1084 14)"/></g><g transform="translate(-868 238)"><circle class="c" cx="2" cy="2" r="2" transform="translate(1084 14)"/></g><g transform="translate(-850 238)"><circle class="c" cx="2" cy="2" r="2" transform="translate(1084 14)"/></g><g transform="translate(-832 238)"><circle class="c" cx="2" cy="2" r="2" transform="translate(1084 14)"/></g><g transform="translate(-814 238)"><circle class="c" cx="2" cy="2" r="2" transform="translate(1084 14)"/></g><g transform="translate(-796 238)"><circle class="c" cx="2" cy="2" r="2" transform="translate(1084 14)"/></g><g transform="translate(-778 238)"><circle class="c" cx="2" cy="2" r="2" transform="translate(1084 14)"/></g><g transform="translate(-760 238)"><circle class="c" cx="2" cy="2" r="2" transform="translate(1084 14)"/></g><g transform="translate(-742 238)"><circle class="c" cx="2" cy="2" r="2" transform="translate(1084 14)"/></g><g transform="translate(-724 238)"><circle class="c" cx="2" cy="2" r="2" transform="translate(1084 14)"/></g><g transform="translate(-1084 256)"><circle class="c" cx="2" cy="2" r="2" transform="translate(1084 14)"/></g><g transform="translate(-1066 256)"><circle class="c" cx="2" cy="2" r="2" transform="translate(1084 14)"/></g><g transform="translate(-1048 256)"><circle class="c" cx="2" cy="2" r="2" transform="translate(1084 14)"/></g><g transform="translate(-1030 256)"><circle class="c" cx="2" cy="2" r="2" transform="translate(1084 14)"/></g><g transform="translate(-1012 256)"><circle class="c" cx="2" cy="2" r="2" transform="translate(1084 14)"/></g><g transform="translate(-994 256)"><circle class="c" cx="2" cy="2" r="2" transform="translate(1084 14)"/></g><g transform="translate(-976 256)"><circle class="c" cx="2" cy="2" r="2" transform="translate(1084 14)"/></g><g transform="translate(-958 256)"><circle class="c" cx="2" cy="2" r="2" transform="translate(1084 14)"/></g><g transform="translate(-940 256)"><circle class="c" cx="2" cy="2" r="2" transform="translate(1084 14)"/></g><g transform="translate(-922 256)"><circle class="c" cx="2" cy="2" r="2" transform="translate(1084 14)"/></g><g transform="translate(-904 256)"><circle class="c" cx="2" cy="2" r="2" transform="translate(1084 14)"/></g><g transform="translate(-886 256)"><circle class="c" cx="2" cy="2" r="2" transform="translate(1084 14)"/></g><g transform="translate(-868 256)"><circle class="c" cx="2" cy="2" r="2" transform="translate(1084 14)"/></g><g transform="translate(-850 256)"><circle class="c" cx="2" cy="2" r="2" transform="translate(1084 14)"/></g><g transform="translate(-832 256)"><circle class="c" cx="2" cy="2" r="2" transform="translate(1084 14)"/></g><g transform="translate(-814 256)"><circle class="c" cx="2" cy="2" r="2" transform="translate(1084 14)"/></g><g transform="translate(-796 256)"><circle class="c" cx="2" cy="2" r="2" transform="translate(1084 14)"/></g><g transform="translate(-778 256)"><circle class="c" cx="2" cy="2" r="2" transform="translate(1084 14)"/></g><g transform="translate(-760 256)"><circle class="c" cx="2" cy="2" r="2" transform="translate(1084 14)"/></g><g transform="translate(-742 256)"><circle class="c" cx="2" cy="2" r="2" transform="translate(1084 14)"/></g><g transform="translate(-724 256)"><circle class="c" cx="2" cy="2" r="2" transform="translate(1084 14)"/></g><g transform="translate(-1084 274)"><circle class="c" cx="2" cy="2" r="2" transform="translate(1084 14)"/></g><g transform="translate(-1066 274)"><circle class="c" cx="2" cy="2" r="2" transform="translate(1084 14)"/></g><g transform="translate(-1048 274)"><circle class="c" cx="2" cy="2" r="2" transform="translate(1084 14)"/></g><g transform="translate(-1030 274)"><circle class="c" cx="2" cy="2" r="2" transform="translate(1084 14)"/></g><g transform="translate(-1012 274)"><circle class="c" cx="2" cy="2" r="2" transform="translate(1084 14)"/></g><g transform="translate(-994 274)"><circle class="c" cx="2" cy="2" r="2" transform="translate(1084 14)"/></g><g transform="translate(-976 274)"><circle class="c" cx="2" cy="2" r="2" transform="translate(1084 14)"/></g><g transform="translate(-958 274)"><circle class="c" cx="2" cy="2" r="2" transform="translate(1084 14)"/></g><g transform="translate(-940 274)"><circle class="c" cx="2" cy="2" r="2" transform="translate(1084 14)"/></g><g transform="translate(-922 274)"><circle class="c" cx="2" cy="2" r="2" transform="translate(1084 14)"/></g><g transform="translate(-904 274)"><circle class="c" cx="2" cy="2" r="2" transform="translate(1084 14)"/></g><g transform="translate(-886 274)"><circle class="c" cx="2" cy="2" r="2" transform="translate(1084 14)"/></g><g transform="translate(-868 274)"><circle class="c" cx="2" cy="2" r="2" transform="translate(1084 14)"/></g><g transform="translate(-850 274)"><circle class="c" cx="2" cy="2" r="2" transform="translate(1084 14)"/></g><g transform="translate(-832 274)"><circle class="c" cx="2" cy="2" r="2" transform="translate(1084 14)"/></g><g transform="translate(-814 274)"><circle class="c" cx="2" cy="2" r="2" transform="translate(1084 14)"/></g><g transform="translate(-796 274)"><circle class="c" cx="2" cy="2" r="2" transform="translate(1084 14)"/></g><g transform="translate(-778 274)"><circle class="c" cx="2" cy="2" r="2" transform="translate(1084 14)"/></g><g transform="translate(-760 274)"><circle class="c" cx="2" cy="2" r="2" transform="translate(1084 14)"/></g><g transform="translate(-742 274)"><circle class="c" cx="2" cy="2" r="2" transform="translate(1084 14)"/></g><g transform="translate(-724 274)"><circle class="c" cx="2" cy="2" r="2" transform="translate(1084 14)"/></g><g transform="translate(-1084 292)"><circle class="c" cx="2" cy="2" r="2" transform="translate(1084 14)"/></g><g transform="translate(-1066 292)"><circle class="c" cx="2" cy="2" r="2" transform="translate(1084 14)"/></g><g transform="translate(-1048 292)"><circle class="c" cx="2" cy="2" r="2" transform="translate(1084 14)"/></g><g transform="translate(-1030 292)"><circle class="c" cx="2" cy="2" r="2" transform="translate(1084 14)"/></g><g transform="translate(-1012 292)"><circle class="c" cx="2" cy="2" r="2" transform="translate(1084 14)"/></g><g transform="translate(-994 292)"><circle class="c" cx="2" cy="2" r="2" transform="translate(1084 14)"/></g><g transform="translate(-976 292)"><circle class="c" cx="2" cy="2" r="2" transform="translate(1084 14)"/></g><g transform="translate(-958 292)"><circle class="c" cx="2" cy="2" r="2" transform="translate(1084 14)"/></g><g transform="translate(-940 292)"><circle class="c" cx="2" cy="2" r="2" transform="translate(1084 14)"/></g><g transform="translate(-922 292)"><circle class="c" cx="2" cy="2" r="2" transform="translate(1084 14)"/></g><g transform="translate(-904 292)"><circle class="c" cx="2" cy="2" r="2" transform="translate(1084 14)"/></g><g transform="translate(-886 292)"><circle class="c" cx="2" cy="2" r="2" transform="translate(1084 14)"/></g><g transform="translate(-868 292)"><circle class="c" cx="2" cy="2" r="2" transform="translate(1084 14)"/></g><g transform="translate(-850 292)"><circle class="c" cx="2" cy="2" r="2" transform="translate(1084 14)"/></g><g transform="translate(-832 292)"><circle class="c" cx="2" cy="2" r="2" transform="translate(1084 14)"/></g><g transform="translate(-814 292)"><circle class="c" cx="2" cy="2" r="2" transform="translate(1084 14)"/></g><g transform="translate(-796 292)"><circle class="c" cx="2" cy="2" r="2" transform="translate(1084 14)"/></g><g transform="translate(-778 292)"><circle class="c" cx="2" cy="2" r="2" transform="translate(1084 14)"/></g><g transform="translate(-760 292)"><circle class="c" cx="2" cy="2" r="2" transform="translate(1084 14)"/></g><g transform="translate(-742 292)"><circle class="c" cx="2" cy="2" r="2" transform="translate(1084 14)"/></g><g transform="translate(-724 292)"><circle class="c" cx="2" cy="2" r="2" transform="translate(1084 14)"/></g><g transform="translate(-1084 310)"><circle class="c" cx="2" cy="2" r="2" transform="translate(1084 14)"/></g><g transform="translate(-1066 310)"><circle class="c" cx="2" cy="2" r="2" transform="translate(1084 14)"/></g><g transform="translate(-1048 310)"><circle class="c" cx="2" cy="2" r="2" transform="translate(1084 14)"/></g><g transform="translate(-1030 310)"><circle class="c" cx="2" cy="2" r="2" transform="translate(1084 14)"/></g><g transform="translate(-1012 310)"><circle class="c" cx="2" cy="2" r="2" transform="translate(1084 14)"/></g><g transform="translate(-994 310)"><circle class="c" cx="2" cy="2" r="2" transform="translate(1084 14)"/></g><g transform="translate(-976 310)"><circle class="c" cx="2" cy="2" r="2" transform="translate(1084 14)"/></g><g transform="translate(-958 310)"><circle class="c" cx="2" cy="2" r="2" transform="translate(1084 14)"/></g><g transform="translate(-940 310)"><circle class="c" cx="2" cy="2" r="2" transform="translate(1084 14)"/></g><g transform="translate(-922 310)"><circle class="c" cx="2" cy="2" r="2" transform="translate(1084 14)"/></g><g transform="translate(-904 310)"><circle class="c" cx="2" cy="2" r="2" transform="translate(1084 14)"/></g><g transform="translate(-886 310)"><circle class="c" cx="2" cy="2" r="2" transform="translate(1084 14)"/></g><g transform="translate(-868 310)"><circle class="c" cx="2" cy="2" r="2" transform="translate(1084 14)"/></g><g transform="translate(-850 310)"><circle class="c" cx="2" cy="2" r="2" transform="translate(1084 14)"/></g><g transform="translate(-832 310)"><circle class="c" cx="2" cy="2" r="2" transform="translate(1084 14)"/></g><g transform="translate(-814 310)"><circle class="c" cx="2" cy="2" r="2" transform="translate(1084 14)"/></g><g transform="translate(-796 310)"><circle class="c" cx="2" cy="2" r="2" transform="translate(1084 14)"/></g><g transform="translate(-778 310)"><circle class="c" cx="2" cy="2" r="2" transform="translate(1084 14)"/></g><g transform="translate(-760 310)"><circle class="c" cx="2" cy="2" r="2" transform="translate(1084 14)"/></g><g transform="translate(-742 310)"><circle class="c" cx="2" cy="2" r="2" transform="translate(1084 14)"/></g><g transform="translate(-724 310)"><circle class="c" cx="2" cy="2" r="2" transform="translate(1084 14)"/></g><g transform="translate(-1084 328)"><circle class="c" cx="2" cy="2" r="2" transform="translate(1084 14)"/></g><g transform="translate(-1066 328)"><circle class="c" cx="2" cy="2" r="2" transform="translate(1084 14)"/></g><g transform="translate(-1048 328)"><circle class="c" cx="2" cy="2" r="2" transform="translate(1084 14)"/></g><g transform="translate(-1030 328)"><circle class="c" cx="2" cy="2" r="2" transform="translate(1084 14)"/></g><g transform="translate(-1012 328)"><circle class="c" cx="2" cy="2" r="2" transform="translate(1084 14)"/></g><g transform="translate(-994 328)"><circle class="c" cx="2" cy="2" r="2" transform="translate(1084 14)"/></g><g transform="translate(-976 328)"><circle class="c" cx="2" cy="2" r="2" transform="translate(1084 14)"/></g><g transform="translate(-958 328)"><circle class="c" cx="2" cy="2" r="2" transform="translate(1084 14)"/></g><g transform="translate(-940 328)"><circle class="c" cx="2" cy="2" r="2" transform="translate(1084 14)"/></g><g transform="translate(-922 328)"><circle class="c" cx="2" cy="2" r="2" transform="translate(1084 14)"/></g><g transform="translate(-904 328)"><circle class="c" cx="2" cy="2" r="2" transform="translate(1084 14)"/></g><g transform="translate(-886 328)"><circle class="c" cx="2" cy="2" r="2" transform="translate(1084 14)"/></g><g transform="translate(-868 328)"><circle class="c" cx="2" cy="2" r="2" transform="translate(1084 14)"/></g><g transform="translate(-850 328)"><circle class="c" cx="2" cy="2" r="2" transform="translate(1084 14)"/></g><g transform="translate(-832 328)"><circle class="c" cx="2" cy="2" r="2" transform="translate(1084 14)"/></g><g transform="translate(-814 328)"><circle class="c" cx="2" cy="2" r="2" transform="translate(1084 14)"/></g><g transform="translate(-796 328)"><circle class="c" cx="2" cy="2" r="2" transform="translate(1084 14)"/></g><g transform="translate(-778 328)"><circle class="c" cx="2" cy="2" r="2" transform="translate(1084 14)"/></g><g transform="translate(-760 328)"><circle class="c" cx="2" cy="2" r="2" transform="translate(1084 14)"/></g><g transform="translate(-742 328)"><circle class="c" cx="2" cy="2" r="2" transform="translate(1084 14)"/></g><g transform="translate(-724 328)"><circle class="c" cx="2" cy="2" r="2" transform="translate(1084 14)"/></g><g transform="translate(-1084 346)"><circle class="c" cx="2" cy="2" r="2" transform="translate(1084 14)"/></g><g transform="translate(-1066 346)"><circle class="c" cx="2" cy="2" r="2" transform="translate(1084 14)"/></g><g transform="translate(-1048 346)"><circle class="c" cx="2" cy="2" r="2" transform="translate(1084 14)"/></g><g transform="translate(-1030 346)"><circle class="c" cx="2" cy="2" r="2" transform="translate(1084 14)"/></g><g transform="translate(-1012 346)"><circle class="c" cx="2" cy="2" r="2" transform="translate(1084 14)"/></g><g transform="translate(-994 346)"><circle class="c" cx="2" cy="2" r="2" transform="translate(1084 14)"/></g><g transform="translate(-976 346)"><circle class="c" cx="2" cy="2" r="2" transform="translate(1084 14)"/></g><g transform="translate(-958 346)"><circle class="c" cx="2" cy="2" r="2" transform="translate(1084 14)"/></g><g transform="translate(-940 346)"><circle class="c" cx="2" cy="2" r="2" transform="translate(1084 14)"/></g><g transform="translate(-922 346)"><circle class="c" cx="2" cy="2" r="2" transform="translate(1084 14)"/></g><g transform="translate(-904 346)"><circle class="c" cx="2" cy="2" r="2" transform="translate(1084 14)"/></g><g transform="translate(-886 346)"><circle class="c" cx="2" cy="2" r="2" transform="translate(1084 14)"/></g><g transform="translate(-868 346)"><circle class="c" cx="2" cy="2" r="2" transform="translate(1084 14)"/></g><g transform="translate(-850 346)"><circle class="c" cx="2" cy="2" r="2" transform="translate(1084 14)"/></g><g transform="translate(-832 346)"><circle class="c" cx="2" cy="2" r="2" transform="translate(1084 14)"/></g><g transform="translate(-814 346)"><circle class="c" cx="2" cy="2" r="2" transform="translate(1084 14)"/></g><g transform="translate(-796 346)"><circle class="c" cx="2" cy="2" r="2" transform="translate(1084 14)"/></g><g transform="translate(-778 346)"><circle class="c" cx="2" cy="2" r="2" transform="translate(1084 14)"/></g><g transform="translate(-760 346)"><circle class="c" cx="2" cy="2" r="2" transform="translate(1084 14)"/></g><g transform="translate(-742 346)"><circle class="c" cx="2" cy="2" r="2" transform="translate(1084 14)"/></g><g transform="translate(-724 346)"><circle class="c" cx="2" cy="2" r="2" transform="translate(1084 14)"/></g><g transform="translate(-1084 364)"><circle class="c" cx="2" cy="2" r="2" transform="translate(1084 14)"/></g><g transform="translate(-1066 364)"><circle class="c" cx="2" cy="2" r="2" transform="translate(1084 14)"/></g><g transform="translate(-1048 364)"><circle class="c" cx="2" cy="2" r="2" transform="translate(1084 14)"/></g><g transform="translate(-1030 364)"><circle class="c" cx="2" cy="2" r="2" transform="translate(1084 14)"/></g><g transform="translate(-1012 364)"><circle class="c" cx="2" cy="2" r="2" transform="translate(1084 14)"/></g><g transform="translate(-994 364)"><circle class="c" cx="2" cy="2" r="2" transform="translate(1084 14)"/></g><g transform="translate(-976 364)"><circle class="c" cx="2" cy="2" r="2" transform="translate(1084 14)"/></g><g transform="translate(-958 364)"><circle class="c" cx="2" cy="2" r="2" transform="translate(1084 14)"/></g><g transform="translate(-940 364)"><circle class="c" cx="2" cy="2" r="2" transform="translate(1084 14)"/></g><g transform="translate(-922 364)"><circle class="c" cx="2" cy="2" r="2" transform="translate(1084 14)"/></g><g transform="translate(-904 364)"><circle class="c" cx="2" cy="2" r="2" transform="translate(1084 14)"/></g><g transform="translate(-886 364)"><circle class="c" cx="2" cy="2" r="2" transform="translate(1084 14)"/></g><g transform="translate(-868 364)"><circle class="c" cx="2" cy="2" r="2" transform="translate(1084 14)"/></g><g transform="translate(-850 364)"><circle class="c" cx="2" cy="2" r="2" transform="translate(1084 14)"/></g><g transform="translate(-832 364)"><circle class="c" cx="2" cy="2" r="2" transform="translate(1084 14)"/></g><g transform="translate(-814 364)"><circle class="c" cx="2" cy="2" r="2" transform="translate(1084 14)"/></g><g transform="translate(-796 364)"><circle class="c" cx="2" cy="2" r="2" transform="translate(1084 14)"/></g><g transform="translate(-778 364)"><circle class="c" cx="2" cy="2" r="2" transform="translate(1084 14)"/></g><g transform="translate(-760 364)"><circle class="c" cx="2" cy="2" r="2" transform="translate(1084 14)"/></g><g transform="translate(-742 364)"><circle class="c" cx="2" cy="2" r="2" transform="translate(1084 14)"/></g><g transform="translate(-724 364)"><circle class="c" cx="2" cy="2" r="2" transform="translate(1084 14)"/></g><g transform="translate(-1084 382)"><circle class="c" cx="2" cy="2" r="2" transform="translate(1084 14)"/></g><g transform="translate(-1066 382)"><circle class="c" cx="2" cy="2" r="2" transform="translate(1084 14)"/></g><g transform="translate(-1048 382)"><circle class="c" cx="2" cy="2" r="2" transform="translate(1084 14)"/></g><g transform="translate(-1030 382)"><circle class="c" cx="2" cy="2" r="2" transform="translate(1084 14)"/></g><g transform="translate(-1012 382)"><circle class="c" cx="2" cy="2" r="2" transform="translate(1084 14)"/></g><g transform="translate(-994 382)"><circle class="c" cx="2" cy="2" r="2" transform="translate(1084 14)"/></g><g transform="translate(-976 382)"><circle class="c" cx="2" cy="2" r="2" transform="translate(1084 14)"/></g><g transform="translate(-958 382)"><circle class="c" cx="2" cy="2" r="2" transform="translate(1084 14)"/></g><g transform="translate(-940 382)"><circle class="c" cx="2" cy="2" r="2" transform="translate(1084 14)"/></g><g transform="translate(-922 382)"><circle class="c" cx="2" cy="2" r="2" transform="translate(1084 14)"/></g><g transform="translate(-904 382)"><circle class="c" cx="2" cy="2" r="2" transform="translate(1084 14)"/></g><g transform="translate(-886 382)"><circle class="c" cx="2" cy="2" r="2" transform="translate(1084 14)"/></g><g transform="translate(-868 382)"><circle class="c" cx="2" cy="2" r="2" transform="translate(1084 14)"/></g><g transform="translate(-850 382)"><circle class="c" cx="2" cy="2" r="2" transform="translate(1084 14)"/></g><g transform="translate(-832 382)"><circle class="c" cx="2" cy="2" r="2" transform="translate(1084 14)"/></g><g transform="translate(-814 382)"><circle class="c" cx="2" cy="2" r="2" transform="translate(1084 14)"/></g><g transform="translate(-796 382)"><circle class="c" cx="2" cy="2" r="2" transform="translate(1084 14)"/></g><g transform="translate(-778 382)"><circle class="c" cx="2" cy="2" r="2" transform="translate(1084 14)"/></g><g transform="translate(-760 382)"><circle class="c" cx="2" cy="2" r="2" transform="translate(1084 14)"/></g><g transform="translate(-742 382)"><circle class="c" cx="2" cy="2" r="2" transform="translate(1084 14)"/></g><g transform="translate(-724 382)"><circle class="c" cx="2" cy="2" r="2" transform="translate(1084 14)"/></g><g transform="translate(-1084 400)"><circle class="c" cx="2" cy="2" r="2" transform="translate(1084 14)"/></g><g transform="translate(-1066 400)"><circle class="c" cx="2" cy="2" r="2" transform="translate(1084 14)"/></g><g transform="translate(-1048 400)"><circle class="c" cx="2" cy="2" r="2" transform="translate(1084 14)"/></g><g transform="translate(-1030 400)"><circle class="c" cx="2" cy="2" r="2" transform="translate(1084 14)"/></g><g transform="translate(-1012 400)"><circle class="c" cx="2" cy="2" r="2" transform="translate(1084 14)"/></g><g transform="translate(-994 400)"><circle class="c" cx="2" cy="2" r="2" transform="translate(1084 14)"/></g><g transform="translate(-976 400)"><circle class="c" cx="2" cy="2" r="2" transform="translate(1084 14)"/></g><g transform="translate(-958 400)"><circle class="c" cx="2" cy="2" r="2" transform="translate(1084 14)"/></g><g transform="translate(-940 400)"><circle class="c" cx="2" cy="2" r="2" transform="translate(1084 14)"/></g><g transform="translate(-922 400)"><circle class="c" cx="2" cy="2" r="2" transform="translate(1084 14)"/></g><g transform="translate(-904 400)"><circle class="c" cx="2" cy="2" r="2" transform="translate(1084 14)"/></g><g transform="translate(-886 400)"><circle class="c" cx="2" cy="2" r="2" transform="translate(1084 14)"/></g><g transform="translate(-868 400)"><circle class="c" cx="2" cy="2" r="2" transform="translate(1084 14)"/></g><g transform="translate(-850 400)"><circle class="c" cx="2" cy="2" r="2" transform="translate(1084 14)"/></g><g transform="translate(-832 400)"><circle class="c" cx="2" cy="2" r="2" transform="translate(1084 14)"/></g><g transform="translate(-814 400)"><circle class="c" cx="2" cy="2" r="2" transform="translate(1084 14)"/></g><g transform="translate(-796 400)"><circle class="c" cx="2" cy="2" r="2" transform="translate(1084 14)"/></g><g transform="translate(-778 400)"><circle class="c" cx="2" cy="2" r="2" transform="translate(1084 14)"/></g><g transform="translate(-760 400)"><circle class="c" cx="2" cy="2" r="2" transform="translate(1084 14)"/></g><g transform="translate(-742 400)"><circle class="c" cx="2" cy="2" r="2" transform="translate(1084 14)"/></g><g transform="translate(-724 400)"><circle class="c" cx="2" cy="2" r="2" transform="translate(1084 14)"/></g><g transform="translate(-1084 418)"><circle class="c" cx="2" cy="2" r="2" transform="translate(1084 14)"/></g><g transform="translate(-1066 418)"><circle class="c" cx="2" cy="2" r="2" transform="translate(1084 14)"/></g><g transform="translate(-1048 418)"><circle class="c" cx="2" cy="2" r="2" transform="translate(1084 14)"/></g><g transform="translate(-1030 418)"><circle class="c" cx="2" cy="2" r="2" transform="translate(1084 14)"/></g><g transform="translate(-1012 418)"><circle class="c" cx="2" cy="2" r="2" transform="translate(1084 14)"/></g><g transform="translate(-994 418)"><circle class="c" cx="2" cy="2" r="2" transform="translate(1084 14)"/></g><g transform="translate(-976 418)"><circle class="c" cx="2" cy="2" r="2" transform="translate(1084 14)"/></g><g transform="translate(-958 418)"><circle class="c" cx="2" cy="2" r="2" transform="translate(1084 14)"/></g><g transform="translate(-940 418)"><circle class="c" cx="2" cy="2" r="2" transform="translate(1084 14)"/></g><g transform="translate(-922 418)"><circle class="c" cx="2" cy="2" r="2" transform="translate(1084 14)"/></g><g transform="translate(-904 418)"><circle class="c" cx="2" cy="2" r="2" transform="translate(1084 14)"/></g><g transform="translate(-886 418)"><circle class="c" cx="2" cy="2" r="2" transform="translate(1084 14)"/></g><g transform="translate(-868 418)"><circle class="c" cx="2" cy="2" r="2" transform="translate(1084 14)"/></g><g transform="translate(-850 418)"><circle class="c" cx="2" cy="2" r="2" transform="translate(1084 14)"/></g><g transform="translate(-832 418)"><circle class="c" cx="2" cy="2" r="2" transform="translate(1084 14)"/></g><g transform="translate(-814 418)"><circle class="c" cx="2" cy="2" r="2" transform="translate(1084 14)"/></g><g transform="translate(-796 418)"><circle class="c" cx="2" cy="2" r="2" transform="translate(1084 14)"/></g><g transform="translate(-778 418)"><circle class="c" cx="2" cy="2" r="2" transform="translate(1084 14)"/></g><g transform="translate(-760 418)"><circle class="c" cx="2" cy="2" r="2" transform="translate(1084 14)"/></g><g transform="translate(-742 418)"><circle class="c" cx="2" cy="2" r="2" transform="translate(1084 14)"/></g><g transform="translate(-724 418)"><circle class="c" cx="2" cy="2" r="2" transform="translate(1084 14)"/></g><g transform="translate(-1084 436)"><circle class="c" cx="2" cy="2" r="2" transform="translate(1084 14)"/></g><g transform="translate(-1066 436)"><circle class="c" cx="2" cy="2" r="2" transform="translate(1084 14)"/></g><g transform="translate(-1048 436)"><circle class="c" cx="2" cy="2" r="2" transform="translate(1084 14)"/></g><g transform="translate(-1030 436)"><circle class="c" cx="2" cy="2" r="2" transform="translate(1084 14)"/></g><g transform="translate(-1012 436)"><circle class="c" cx="2" cy="2" r="2" transform="translate(1084 14)"/></g><g transform="translate(-994 436)"><circle class="c" cx="2" cy="2" r="2" transform="translate(1084 14)"/></g><g transform="translate(-976 436)"><circle class="c" cx="2" cy="2" r="2" transform="translate(1084 14)"/></g><g transform="translate(-958 436)"><circle class="c" cx="2" cy="2" r="2" transform="translate(1084 14)"/></g><g transform="translate(-940 436)"><circle class="c" cx="2" cy="2" r="2" transform="translate(1084 14)"/></g><g transform="translate(-922 436)"><circle class="c" cx="2" cy="2" r="2" transform="translate(1084 14)"/></g><g transform="translate(-904 436)"><circle class="c" cx="2" cy="2" r="2" transform="translate(1084 14)"/></g><g transform="translate(-886 436)"><circle class="c" cx="2" cy="2" r="2" transform="translate(1084 14)"/></g><g transform="translate(-868 436)"><circle class="c" cx="2" cy="2" r="2" transform="translate(1084 14)"/></g><g transform="translate(-850 436)"><circle class="c" cx="2" cy="2" r="2" transform="translate(1084 14)"/></g><g transform="translate(-832 436)"><circle class="c" cx="2" cy="2" r="2" transform="translate(1084 14)"/></g><g transform="translate(-814 436)"><circle class="c" cx="2" cy="2" r="2" transform="translate(1084 14)"/></g><g transform="translate(-796 436)"><circle class="c" cx="2" cy="2" r="2" transform="translate(1084 14)"/></g><g transform="translate(-778 436)"><circle class="c" cx="2" cy="2" r="2" transform="translate(1084 14)"/></g><g transform="translate(-760 436)"><circle class="c" cx="2" cy="2" r="2" transform="translate(1084 14)"/></g><g transform="translate(-742 436)"><circle class="c" cx="2" cy="2" r="2" transform="translate(1084 14)"/></g><g transform="translate(-724 436)"><circle class="c" cx="2" cy="2" r="2" transform="translate(1084 14)"/></g><g transform="translate(-1084 454)"><circle class="c" cx="2" cy="2" r="2" transform="translate(1084 14)"/></g><g transform="translate(-1066 454)"><circle class="c" cx="2" cy="2" r="2" transform="translate(1084 14)"/></g><g transform="translate(-1048 454)"><circle class="c" cx="2" cy="2" r="2" transform="translate(1084 14)"/></g><g transform="translate(-1030 454)"><circle class="c" cx="2" cy="2" r="2" transform="translate(1084 14)"/></g><g transform="translate(-1012 454)"><circle class="c" cx="2" cy="2" r="2" transform="translate(1084 14)"/></g><g transform="translate(-994 454)"><circle class="c" cx="2" cy="2" r="2" transform="translate(1084 14)"/></g><g transform="translate(-976 454)"><circle class="c" cx="2" cy="2" r="2" transform="translate(1084 14)"/></g><g transform="translate(-958 454)"><circle class="c" cx="2" cy="2" r="2" transform="translate(1084 14)"/></g><g transform="translate(-940 454)"><circle class="c" cx="2" cy="2" r="2" transform="translate(1084 14)"/></g><g transform="translate(-922 454)"><circle class="c" cx="2" cy="2" r="2" transform="translate(1084 14)"/></g><g transform="translate(-904 454)"><circle class="c" cx="2" cy="2" r="2" transform="translate(1084 14)"/></g><g transform="translate(-886 454)"><circle class="c" cx="2" cy="2" r="2" transform="translate(1084 14)"/></g><g transform="translate(-868 454)"><circle class="c" cx="2" cy="2" r="2" transform="translate(1084 14)"/></g><g transform="translate(-850 454)"><circle class="c" cx="2" cy="2" r="2" transform="translate(1084 14)"/></g><g transform="translate(-832 454)"><circle class="c" cx="2" cy="2" r="2" transform="translate(1084 14)"/></g><g transform="translate(-814 454)"><circle class="c" cx="2" cy="2" r="2" transform="translate(1084 14)"/></g><g transform="translate(-796 454)"><circle class="c" cx="2" cy="2" r="2" transform="translate(1084 14)"/></g><g transform="translate(-778 454)"><circle class="c" cx="2" cy="2" r="2" transform="translate(1084 14)"/></g><g transform="translate(-760 454)"><circle class="c" cx="2" cy="2" r="2" transform="translate(1084 14)"/></g><g transform="translate(-742 454)"><circle class="c" cx="2" cy="2" r="2" transform="translate(1084 14)"/></g><g transform="translate(-724 454)"><circle class="c" cx="2" cy="2" r="2" transform="translate(1084 14)"/></g><g transform="translate(-1084 472)"><circle class="c" cx="2" cy="2" r="2" transform="translate(1084 14)"/></g><g transform="translate(-1066 472)"><circle class="c" cx="2" cy="2" r="2" transform="translate(1084 14)"/></g><g transform="translate(-1048 472)"><circle class="c" cx="2" cy="2" r="2" transform="translate(1084 14)"/></g><g transform="translate(-1030 472)"><circle class="c" cx="2" cy="2" r="2" transform="translate(1084 14)"/></g><g transform="translate(-1012 472)"><circle class="c" cx="2" cy="2" r="2" transform="translate(1084 14)"/></g><g transform="translate(-994 472)"><circle class="c" cx="2" cy="2" r="2" transform="translate(1084 14)"/></g><g transform="translate(-976 472)"><circle class="c" cx="2" cy="2" r="2" transform="translate(1084 14)"/></g><g transform="translate(-958 472)"><circle class="c" cx="2" cy="2" r="2" transform="translate(1084 14)"/></g><g transform="translate(-940 472)"><circle class="c" cx="2" cy="2" r="2" transform="translate(1084 14)"/></g><g transform="translate(-922 472)"><circle class="c" cx="2" cy="2" r="2" transform="translate(1084 14)"/></g><g transform="translate(-904 472)"><circle class="c" cx="2" cy="2" r="2" transform="translate(1084 14)"/></g><g transform="translate(-886 472)"><circle class="c" cx="2" cy="2" r="2" transform="translate(1084 14)"/></g><g transform="translate(-868 472)"><circle class="c" cx="2" cy="2" r="2" transform="translate(1084 14)"/></g><g transform="translate(-850 472)"><circle class="c" cx="2" cy="2" r="2" transform="translate(1084 14)"/></g><g transform="translate(-832 472)"><circle class="c" cx="2" cy="2" r="2" transform="translate(1084 14)"/></g><g transform="translate(-814 472)"><circle class="c" cx="2" cy="2" r="2" transform="translate(1084 14)"/></g><g transform="translate(-796 472)"><circle class="c" cx="2" cy="2" r="2" transform="translate(1084 14)"/></g><g transform="translate(-778 472)"><circle class="c" cx="2" cy="2" r="2" transform="translate(1084 14)"/></g><g transform="translate(-760 472)"><circle class="c" cx="2" cy="2" r="2" transform="translate(1084 14)"/></g><g transform="translate(-742 472)"><circle class="c" cx="2" cy="2" r="2" transform="translate(1084 14)"/></g><g transform="translate(-724 472)"><circle class="c" cx="2" cy="2" r="2" transform="translate(1084 14)"/></g><g transform="translate(-1084 490)"><circle class="c" cx="2" cy="2" r="2" transform="translate(1084 14)"/></g><g transform="translate(-1066 490)"><circle class="c" cx="2" cy="2" r="2" transform="translate(1084 14)"/></g><g transform="translate(-1048 490)"><circle class="c" cx="2" cy="2" r="2" transform="translate(1084 14)"/></g><g transform="translate(-1030 490)"><circle class="c" cx="2" cy="2" r="2" transform="translate(1084 14)"/></g><g transform="translate(-1012 490)"><circle class="c" cx="2" cy="2" r="2" transform="translate(1084 14)"/></g><g transform="translate(-994 490)"><circle class="c" cx="2" cy="2" r="2" transform="translate(1084 14)"/></g><g transform="translate(-976 490)"><circle class="c" cx="2" cy="2" r="2" transform="translate(1084 14)"/></g><g transform="translate(-958 490)"><circle class="c" cx="2" cy="2" r="2" transform="translate(1084 14)"/></g><g transform="translate(-940 490)"><circle class="c" cx="2" cy="2" r="2" transform="translate(1084 14)"/></g><g transform="translate(-922 490)"><circle class="c" cx="2" cy="2" r="2" transform="translate(1084 14)"/></g><g transform="translate(-904 490)"><circle class="c" cx="2" cy="2" r="2" transform="translate(1084 14)"/></g><g transform="translate(-886 490)"><circle class="c" cx="2" cy="2" r="2" transform="translate(1084 14)"/></g><g transform="translate(-868 490)"><circle class="c" cx="2" cy="2" r="2" transform="translate(1084 14)"/></g><g transform="translate(-850 490)"><circle class="c" cx="2" cy="2" r="2" transform="translate(1084 14)"/></g><g transform="translate(-832 490)"><circle class="c" cx="2" cy="2" r="2" transform="translate(1084 14)"/></g><g transform="translate(-814 490)"><circle class="c" cx="2" cy="2" r="2" transform="translate(1084 14)"/></g><g transform="translate(-796 490)"><circle class="c" cx="2" cy="2" r="2" transform="translate(1084 14)"/></g><g transform="translate(-778 490)"><circle class="c" cx="2" cy="2" r="2" transform="translate(1084 14)"/></g><g transform="translate(-760 490)"><circle class="c" cx="2" cy="2" r="2" transform="translate(1084 14)"/></g><g transform="translate(-742 490)"><circle class="c" cx="2" cy="2" r="2" transform="translate(1084 14)"/></g><g transform="translate(-724 490)"><circle class="c" cx="2" cy="2" r="2" transform="translate(1084 14)"/></g></g><g class="d" transform="translate(9 594)"><g transform="translate(-1084 -14)"><circle class="c" cx="2" cy="2" r="2" transform="translate(1084 14)"/></g><g transform="translate(-1066 -14)"><circle class="c" cx="2" cy="2" r="2" transform="translate(1084 14)"/></g><g transform="translate(-1048 -14)"><circle class="c" cx="2" cy="2" r="2" transform="translate(1084 14)"/></g><g transform="translate(-1030 -14)"><circle class="c" cx="2" cy="2" r="2" transform="translate(1084 14)"/></g><g transform="translate(-1012 -14)"><circle class="c" cx="2" cy="2" r="2" transform="translate(1084 14)"/></g><g transform="translate(-994 -14)"><circle class="c" cx="2" cy="2" r="2" transform="translate(1084 14)"/></g><g transform="translate(-976 -14)"><circle class="c" cx="2" cy="2" r="2" transform="translate(1084 14)"/></g><g transform="translate(-958 -14)"><circle class="c" cx="2" cy="2" r="2" transform="translate(1084 14)"/></g><g transform="translate(-1084 4)"><circle class="c" cx="2" cy="2" r="2" transform="translate(1084 14)"/></g><g transform="translate(-1066 4)"><circle class="c" cx="2" cy="2" r="2" transform="translate(1084 14)"/></g><g transform="translate(-1048 4)"><circle class="c" cx="2" cy="2" r="2" transform="translate(1084 14)"/></g><g transform="translate(-1030 4)"><circle class="c" cx="2" cy="2" r="2" transform="translate(1084 14)"/></g><g transform="translate(-1012 4)"><circle class="c" cx="2" cy="2" r="2" transform="translate(1084 14)"/></g><g transform="translate(-994 4)"><circle class="c" cx="2" cy="2" r="2" transform="translate(1084 14)"/></g><g transform="translate(-976 4)"><circle class="c" cx="2" cy="2" r="2" transform="translate(1084 14)"/></g><g transform="translate(-958 4)"><circle class="c" cx="2" cy="2" r="2" transform="translate(1084 14)"/></g><g transform="translate(-1084 22)"><circle class="c" cx="2" cy="2" r="2" transform="translate(1084 14)"/></g><g transform="translate(-1066 22)"><circle class="c" cx="2" cy="2" r="2" transform="translate(1084 14)"/></g><g transform="translate(-1048 22)"><circle class="c" cx="2" cy="2" r="2" transform="translate(1084 14)"/></g><g transform="translate(-1030 22)"><circle class="c" cx="2" cy="2" r="2" transform="translate(1084 14)"/></g><g transform="translate(-1012 22)"><circle class="c" cx="2" cy="2" r="2" transform="translate(1084 14)"/></g><g transform="translate(-994 22)"><circle class="c" cx="2" cy="2" r="2" transform="translate(1084 14)"/></g><g transform="translate(-976 22)"><circle class="c" cx="2" cy="2" r="2" transform="translate(1084 14)"/></g><g transform="translate(-958 22)"><circle class="c" cx="2" cy="2" r="2" transform="translate(1084 14)"/></g><g transform="translate(-1084 40)"><circle class="c" cx="2" cy="2" r="2" transform="translate(1084 14)"/></g><g transform="translate(-1066 40)"><circle class="c" cx="2" cy="2" r="2" transform="translate(1084 14)"/></g><g transform="translate(-1048 40)"><circle class="c" cx="2" cy="2" r="2" transform="translate(1084 14)"/></g><g transform="translate(-1030 40)"><circle class="c" cx="2" cy="2" r="2" transform="translate(1084 14)"/></g><g transform="translate(-1012 40)"><circle class="c" cx="2" cy="2" r="2" transform="translate(1084 14)"/></g><g transform="translate(-994 40)"><circle class="c" cx="2" cy="2" r="2" transform="translate(1084 14)"/></g><g transform="translate(-976 40)"><circle class="c" cx="2" cy="2" r="2" transform="translate(1084 14)"/></g><g transform="translate(-958 40)"><circle class="c" cx="2" cy="2" r="2" transform="translate(1084 14)"/></g><g transform="translate(-1084 58)"><circle class="c" cx="2" cy="2" r="2" transform="translate(1084 14)"/></g><g transform="translate(-1066 58)"><circle class="c" cx="2" cy="2" r="2" transform="translate(1084 14)"/></g><g transform="translate(-1048 58)"><circle class="c" cx="2" cy="2" r="2" transform="translate(1084 14)"/></g><g transform="translate(-1030 58)"><circle class="c" cx="2" cy="2" r="2" transform="translate(1084 14)"/></g><g transform="translate(-1012 58)"><circle class="c" cx="2" cy="2" r="2" transform="translate(1084 14)"/></g><g transform="translate(-994 58)"><circle class="c" cx="2" cy="2" r="2" transform="translate(1084 14)"/></g><g transform="translate(-976 58)"><circle class="c" cx="2" cy="2" r="2" transform="translate(1084 14)"/></g><g transform="translate(-958 58)"><circle class="c" cx="2" cy="2" r="2" transform="translate(1084 14)"/></g><g transform="translate(-1084 76)"><circle class="c" cx="2" cy="2" r="2" transform="translate(1084 14)"/></g><g transform="translate(-1066 76)"><circle class="c" cx="2" cy="2" r="2" transform="translate(1084 14)"/></g><g transform="translate(-1048 76)"><circle class="c" cx="2" cy="2" r="2" transform="translate(1084 14)"/></g><g transform="translate(-1030 76)"><circle class="c" cx="2" cy="2" r="2" transform="translate(1084 14)"/></g><g transform="translate(-1012 76)"><circle class="c" cx="2" cy="2" r="2" transform="translate(1084 14)"/></g><g transform="translate(-994 76)"><circle class="c" cx="2" cy="2" r="2" transform="translate(1084 14)"/></g><g transform="translate(-976 76)"><circle class="c" cx="2" cy="2" r="2" transform="translate(1084 14)"/></g><g transform="translate(-958 76)"><circle class="c" cx="2" cy="2" r="2" transform="translate(1084 14)"/></g><g transform="translate(-1084 94)"><circle class="c" cx="2" cy="2" r="2" transform="translate(1084 14)"/></g><g transform="translate(-1066 94)"><circle class="c" cx="2" cy="2" r="2" transform="translate(1084 14)"/></g><g transform="translate(-1048 94)"><circle class="c" cx="2" cy="2" r="2" transform="translate(1084 14)"/></g><g transform="translate(-1030 94)"><circle class="c" cx="2" cy="2" r="2" transform="translate(1084 14)"/></g><g transform="translate(-1012 94)"><circle class="c" cx="2" cy="2" r="2" transform="translate(1084 14)"/></g><g transform="translate(-994 94)"><circle class="c" cx="2" cy="2" r="2" transform="translate(1084 14)"/></g><g transform="translate(-976 94)"><circle class="c" cx="2" cy="2" r="2" transform="translate(1084 14)"/></g><g transform="translate(-958 94)"><circle class="c" cx="2" cy="2" r="2" transform="translate(1084 14)"/></g><g transform="translate(-1084 112)"><circle class="c" cx="2" cy="2" r="2" transform="translate(1084 14)"/></g><g transform="translate(-1066 112)"><circle class="c" cx="2" cy="2" r="2" transform="translate(1084 14)"/></g><g transform="translate(-1048 112)"><circle class="c" cx="2" cy="2" r="2" transform="translate(1084 14)"/></g><g transform="translate(-1030 112)"><circle class="c" cx="2" cy="2" r="2" transform="translate(1084 14)"/></g><g transform="translate(-1012 112)"><circle class="c" cx="2" cy="2" r="2" transform="translate(1084 14)"/></g><g transform="translate(-994 112)"><circle class="c" cx="2" cy="2" r="2" transform="translate(1084 14)"/></g><g transform="translate(-976 112)"><circle class="c" cx="2" cy="2" r="2" transform="translate(1084 14)"/></g><g transform="translate(-958 112)"><circle class="c" cx="2" cy="2" r="2" transform="translate(1084 14)"/></g><g transform="translate(-1084 130)"><circle class="c" cx="2" cy="2" r="2" transform="translate(1084 14)"/></g><g transform="translate(-1066 130)"><circle class="c" cx="2" cy="2" r="2" transform="translate(1084 14)"/></g><g transform="translate(-1048 130)"><circle class="c" cx="2" cy="2" r="2" transform="translate(1084 14)"/></g><g transform="translate(-1030 130)"><circle class="c" cx="2" cy="2" r="2" transform="translate(1084 14)"/></g><g transform="translate(-1012 130)"><circle class="c" cx="2" cy="2" r="2" transform="translate(1084 14)"/></g><g transform="translate(-994 130)"><circle class="c" cx="2" cy="2" r="2" transform="translate(1084 14)"/></g><g transform="translate(-976 130)"><circle class="c" cx="2" cy="2" r="2" transform="translate(1084 14)"/></g><g transform="translate(-958 130)"><circle class="c" cx="2" cy="2" r="2" transform="translate(1084 14)"/></g><g transform="translate(-1084 148)"><circle class="c" cx="2" cy="2" r="2" transform="translate(1084 14)"/></g><g transform="translate(-1066 148)"><circle class="c" cx="2" cy="2" r="2" transform="translate(1084 14)"/></g><g transform="translate(-1048 148)"><circle class="c" cx="2" cy="2" r="2" transform="translate(1084 14)"/></g><g transform="translate(-1030 148)"><circle class="c" cx="2" cy="2" r="2" transform="translate(1084 14)"/></g><g transform="translate(-1012 148)"><circle class="c" cx="2" cy="2" r="2" transform="translate(1084 14)"/></g><g transform="translate(-994 148)"><circle class="c" cx="2" cy="2" r="2" transform="translate(1084 14)"/></g><g transform="translate(-976 148)"><circle class="c" cx="2" cy="2" r="2" transform="translate(1084 14)"/></g><g transform="translate(-958 148)"><circle class="c" cx="2" cy="2" r="2" transform="translate(1084 14)"/></g></g><circle class="e" cx="81" cy="81" r="81" transform="translate(931 697)"/><circle class="f" cx="29" cy="29" r="29" transform="translate(75 212)"/><circle class="f" cx="144" cy="144" r="144" transform="translate(69 -76)"/></g></svg>