<svg xmlns="http://www.w3.org/2000/svg" width="22" height="14" viewBox="0 0 22 14"><defs><style>.a{fill:#1f2e54;}</style></defs><g transform="translate(-4.5 -10.125)"><path class="a" d="M25.583,12.125H5.417a.964.964,0,0,1-.917-1h0a.964.964,0,0,1,.917-1H25.583a.964.964,0,0,1,.917,1h0A.964.964,0,0,1,25.583,12.125Z"/><path class="a" d="M25.583,18.875H5.417a.964.964,0,0,1-.917-1h0a.964.964,0,0,1,.917-1H25.583a.964.964,0,0,1,.917,1h0A.964.964,0,0,1,25.583,18.875Z" transform="translate(0 -0.75)"/><path class="a" d="M25.583,25.625H5.417a.964.964,0,0,1-.917-1h0a.964.964,0,0,1,.917-1H25.583a.964.964,0,0,1,.917,1h0A.964.964,0,0,1,25.583,25.625Z" transform="translate(0 -1.5)"/></g></svg>