<svg xmlns="http://www.w3.org/2000/svg" width="15.845" height="15.7" viewBox="0 0 15.845 15.7"><defs><style>.a{fill:#fff;stroke:#fff;stroke-width:0.7px;}</style></defs><g transform="translate(0.35 0.35)"><path class="a" d="M246.413,160.051l-.663.663,2.012,2.012h-6.643v.938h6.643l-2.012,2.012.663.663,3.144-3.144Z" transform="translate(-234.556 -155.695)"/><path class="a" d="M10.313,14.063H.938V.937h9.375v.938h.938V.469A.468.468,0,0,0,10.781,0H.469A.468.468,0,0,0,0,.469V14.531A.468.468,0,0,0,.469,15H10.781a.468.468,0,0,0,.469-.469V13.125h-.938Z" transform="translate(0 0)"/></g></svg>