<svg xmlns="http://www.w3.org/2000/svg" width="19.6" height="19.6" viewBox="0 0 19.6 19.6"><defs><style>.a{fill:none;stroke-linecap:round;stroke-linejoin:round;}.b,.c{stroke:none;}.c{fill:#fff;}</style></defs><g transform="translate(0.3 0.3)"><g class="a" transform="translate(-6.182 -6.182)"><path class="b" d="M17.864,15.682A2.182,2.182,0,1,1,15.682,13.5,2.182,2.182,0,0,1,17.864,15.682Z"/><path class="c" d="M 15.6818208694458 13.5 C 14.47683143615723 13.5 13.5 14.47683143615723 13.5 15.6818208694458 C 13.5 16.88681030273438 14.47683143615723 17.86363983154297 15.6818208694458 17.86363983154297 C 16.88681030273438 17.86363983154297 17.86363983154297 16.88681030273438 17.86363983154297 15.6818208694458 C 17.86363983154297 14.47683143615723 16.88681030273438 13.5 15.6818208694458 13.5 M 15.6818208694458 11.70000076293945 C 17.87739944458008 11.70000076293945 19.66364097595215 13.48624038696289 19.66364097595215 15.6818208694458 C 19.66364097595215 17.87739944458008 17.87739944458008 19.66364097595215 15.6818208694458 19.66364097595215 C 13.48624038696289 19.66364097595215 11.70000076293945 17.87739944458008 11.70000076293945 15.6818208694458 C 11.70000076293945 13.48624038696289 13.48624038696289 11.70000076293945 15.6818208694458 11.70000076293945 Z"/></g><g class="a" transform="translate(0 0)"><path class="b" d="M14.882,11.682a1.2,1.2,0,0,0,.24,1.324l.044.044a1.455,1.455,0,1,1-2.058,2.058l-.044-.044a1.21,1.21,0,0,0-2.051.858v.124a1.455,1.455,0,0,1-2.909,0V15.98a1.2,1.2,0,0,0-.785-1.1,1.2,1.2,0,0,0-1.324.24l-.044.044a1.455,1.455,0,1,1-2.058-2.058l.044-.044a1.21,1.21,0,0,0-.858-2.051H2.955a1.455,1.455,0,1,1,0-2.909H3.02a1.2,1.2,0,0,0,1.1-.785,1.2,1.2,0,0,0-.24-1.324l-.044-.044A1.455,1.455,0,1,1,5.893,3.893l.044.044a1.2,1.2,0,0,0,1.324.24h.058a1.2,1.2,0,0,0,.727-1.1V2.955a1.455,1.455,0,0,1,2.909,0V3.02a1.21,1.21,0,0,0,2.051.858l.044-.044a1.455,1.455,0,1,1,2.058,2.058l-.044.044a1.2,1.2,0,0,0-.24,1.324v.058a1.2,1.2,0,0,0,1.1.727h.124a1.455,1.455,0,0,1,0,2.909H15.98a1.2,1.2,0,0,0-1.1.727Z"/><path class="c" d="M 9.55817985534668 17.5 C 10.36151027679443 17.5 11.01272964477539 16.84877967834473 11.01272964477539 16.04545974731445 L 11.01272964477539 15.92181968688965 C 11.01463985443115 15.44353008270264 11.30039024353027 15.01204967498779 11.73999977111816 14.82363033294678 C 11.89580917358398 14.75486946105957 12.06066799163818 14.72144031524658 12.22422981262207 14.72144031524658 C 12.53180122375488 14.72144031524658 12.83470439910889 14.83969879150391 13.06363964080811 15.06363964080811 L 13.10727977752686 15.10727024078369 C 13.38010025024414 15.38039970397949 13.75032043457031 15.53386974334717 14.1363697052002 15.53386974334717 C 14.52241992950439 15.53386974334717 14.89262962341309 15.38039970397949 15.16545963287354 15.10727024078369 C 15.43859004974365 14.83444976806641 15.59206008911133 14.46422958374023 15.59206008911133 14.07818031311035 C 15.59206008911133 13.69213008880615 15.43859004974365 13.32192039489746 15.16545963287354 13.04909038543701 L 15.1218204498291 13.00545978546143 C 14.77879047393799 12.65478038787842 14.68375015258789 12.13061046600342 14.88181972503662 11.68181991577148 C 15.07022953033447 11.24219989776611 15.5017204284668 10.95645046234131 15.97999954223633 10.95454978942871 L 16.04545974731445 10.95454978942871 C 16.84877967834473 10.95454978942871 17.5 10.30333042144775 17.5 9.5 C 17.5 8.696680068969727 16.84877967834473 8.045459747314453 16.04545974731445 8.045459747314453 L 15.92181968688965 8.045459747314453 C 15.44353008270264 8.043549537658691 15.01204967498779 7.757800102233887 14.82363986968994 7.318180084228516 L 14.82363033294678 7.260000228881836 C 14.62557029724121 6.811210155487061 14.72060966491699 6.287049770355225 15.06363964080811 5.936369895935059 L 15.10727024078369 5.892730236053467 C 15.38039970397949 5.619900226593018 15.53386974334717 5.249690055847168 15.53386974334717 4.863639831542969 C 15.53386974334717 4.477590084075928 15.38039970397949 4.107369899749756 15.10727024078369 3.834549903869629 C 14.83444976806641 3.56141996383667 14.46422958374023 3.407949924468994 14.07818031311035 3.407949924468994 C 13.69213008880615 3.407949924468994 13.32192039489746 3.56141996383667 13.04909038543701 3.834549903869629 L 13.00545978546143 3.878180027008057 C 12.77650356292725 4.102141857147217 12.47365760803223 4.220376968383789 12.16605663299561 4.220376968383789 C 12.00252246856689 4.220376968383789 11.83759784698486 4.186931610107422 11.68181991577148 4.118179798126221 C 11.24219989776611 3.929769992828369 10.95645046234131 3.498290061950684 10.95454978942871 3.019999980926514 L 10.95454978942871 2.95455002784729 C 10.95454978942871 2.151220083236694 10.30333042144775 1.5 9.5 1.5 C 8.696680068969727 1.5 8.045459747314453 2.151220083236694 8.045459747314453 2.95455002784729 L 8.045459747314453 3.078180074691772 C 8.043549537658691 3.556469917297363 7.757800102233887 3.987950086593628 7.318180084228516 4.176370143890381 L 7.260000228881836 4.176370143890381 C 7.104194641113281 4.245130062103271 6.939337730407715 4.278559684753418 6.775776386260986 4.278559684753418 C 6.468207359313965 4.278559684753418 6.16530179977417 4.160301208496094 5.936359882354736 3.936359882354736 L 5.892730236053467 3.892729997634888 C 5.619900226593018 3.619600057601929 5.249690055847168 3.466130018234253 4.863639831542969 3.466130018234253 C 4.477590084075928 3.466130018234253 4.107369899749756 3.619600057601929 3.834549903869629 3.892729997634888 C 3.56141996383667 4.165559768676758 3.407949924468994 4.535769939422607 3.407949924468994 4.921820163726807 C 3.407949924468994 5.307869911193848 3.56141996383667 5.678080081939697 3.834549903869629 5.950910091400146 L 3.878180027008057 5.994550228118896 C 4.22121000289917 6.345230102539063 4.316249847412109 6.86939001083374 4.118179798126221 7.318180084228516 C 3.948100090026855 7.780640125274658 3.512599945068359 8.092120170593262 3.019999980926514 8.103639602661133 L 2.95455002784729 8.103639602661133 C 2.151220083236694 8.103639602661133 1.5 8.754859924316406 1.5 9.55817985534668 C 1.5 10.36151027679443 2.151220083236694 11.01272964477539 2.95455002784729 11.01272964477539 L 3.078180074691772 11.01272964477539 C 3.556469917297363 11.01463985443115 3.987950086593628 11.30039024353027 4.176370143890381 11.73999977111816 C 4.374430179595947 12.18879985809326 4.27938985824585 12.7129602432251 3.936359882354736 13.06363964080811 L 3.892729997634888 13.10727977752686 C 3.619600057601929 13.38010025024414 3.466130018234253 13.75032043457031 3.466130018234253 14.1363697052002 C 3.466130018234253 14.52241992950439 3.619600057601929 14.89262962341309 3.892729997634888 15.16545963287354 C 4.165559768676758 15.43859004974365 4.535769939422607 15.59206008911133 4.921820163726807 15.59206008911133 C 5.307869911193848 15.59206008911133 5.678080081939697 15.43859004974365 5.950910091400146 15.16545963287354 L 5.994550228118896 15.1218204498291 C 6.223506450653076 14.89785766601563 6.526348114013672 14.77962303161621 6.833946228027344 14.77962303161621 C 6.99747896194458 14.77962303161621 7.162401676177979 14.81306838989258 7.318180084228516 14.88181972503662 C 7.780640125274658 15.05189990997314 8.092120170593262 15.48740005493164 8.103639602661133 15.97999954223633 L 8.103639602661133 16.04545974731445 C 8.103639602661133 16.84877967834473 8.754859924316406 17.5 9.55817985534668 17.5 M 9.55817985534668 19.29999923706055 C 8.100318908691406 19.29999923706055 6.863223075866699 18.33633232116699 6.450345993041992 17.01264762878418 C 5.985504150390625 17.26050758361816 5.46381139755249 17.39205932617188 4.921820163726807 17.39205932617188 C 4.051829814910889 17.39205932617188 3.234090089797974 17.05307960510254 2.619240045547485 16.43754959106445 C 2.005110025405884 15.82409954071045 1.666129946708679 15.00636005401611 1.666129946708679 14.1363697052002 C 1.666129946708679 13.61979579925537 1.785634756088257 13.121657371521 2.011579275131226 12.67347145080566 C 0.6752957701683044 12.26828956604004 -0.300000011920929 11.02502250671387 -0.300000011920929 9.55817985534668 C -0.300000011920929 8.100318908691406 0.6636592149734497 6.863227367401123 1.987345814704895 6.450350761413574 C 1.739522099494934 5.985542774200439 1.60794997215271 5.46381139755249 1.60794997215271 4.921820163726807 C 1.60794997215271 4.051829814910889 1.946930050849915 3.234090089797974 2.562459945678711 2.619240045547485 C 3.175879955291748 2.005120038986206 3.993619918823242 1.666129946708679 4.863639831542969 1.666129946708679 C 5.399631023406982 1.666129946708679 5.915857315063477 1.79483163356781 6.376957416534424 2.037562847137451 C 6.773880004882813 0.688059389591217 8.023737907409668 -0.300000011920929 9.5 -0.300000011920929 C 10.94833183288574 -0.300000011920929 12.17873287200928 0.6509631276130676 12.5995922088623 1.961294412612915 C 13.05172348022461 1.730291366577148 13.55551719665527 1.60794997215271 14.07818031311035 1.60794997215271 C 14.94820022583008 1.60794997215271 15.76593971252441 1.946939945220947 16.38077926635742 2.562479972839355 C 16.99488067626953 3.175879955291748 17.33386993408203 3.993619918823242 17.33386993408203 4.863639831542969 C 17.33386993408203 5.399631023406982 17.20516967773438 5.915854930877686 16.96243858337402 6.376955032348633 C 18.31193923950195 6.773877620697021 19.29999923706055 8.023737907409668 19.29999923706055 9.5 C 19.29999923706055 10.94833183288574 18.34903335571289 12.17873668670654 17.03870391845703 12.59959506988525 C 17.26973724365234 13.05175876617432 17.39205932617188 13.55551719665527 17.39205932617188 14.07818031311035 C 17.39205932617188 14.94820022583008 17.05307006835938 15.76593971252441 16.43753051757813 16.38077926635742 C 15.82409954071045 16.9948902130127 15.00636005401611 17.33386993408203 14.1363697052002 17.33386993408203 C 13.61979579925537 17.33386993408203 13.12165927886963 17.2143669128418 12.67347431182861 16.98842239379883 C 12.26829242706299 18.32470321655273 11.02502250671387 19.29999923706055 9.55817985534668 19.29999923706055 Z"/></g></g></svg>