<?xml version="1.0" encoding="utf-8"?>
<!-- Generator: Adobe Illustrator 24.0.0, SVG Export Plug-In . SVG Version: 6.00 Build 0)  -->
<svg version="1.1" id="Layer_1" xmlns="http://www.w3.org/2000/svg" xmlns:xlink="http://www.w3.org/1999/xlink" x="0px" y="0px"
	 viewBox="0 0 17.1 14.5" style="enable-background:new 0 0 17.1 14.5;" xml:space="preserve">
<style type="text/css">
	.st0{fill:#1F2E54;}
</style>
<path class="st0" d="M17.1,7.2c0-0.3-0.5-0.8-0.5-0.8l-5.5-6.1C10.8,0,10.2,0,9.9,0.3S9.5,1.2,9.8,1.5l4.3,4.8H1
	c-0.5,0.1-0.9,0.5-0.9,1S0.5,8.2,1,8.2h13.2L9.9,13c-0.3,0.4-0.3,0.9,0.1,1.2c0.2,0.2,0.4,0.2,0.6,0.2c0.2,0,0.5-0.1,0.7-0.3L16.8,8
	C17,7.7,17.1,7.5,17.1,7.2z"/>
</svg>
